<mxfile host="app.diagrams.net" modified="2022-09-07T22:09:57.020Z" agent="5.0 (X11)" etag="E7RKssAffaLDWTXQf31x" version="20.3.0" type="github">
  <diagram id="kgpKYQtTHZ0yAKxKKP6v" name="Page-1">
    <mxGraphModel dx="1422" dy="796" grid="1" gridSize="10" guides="1" tooltips="1" connect="1" arrows="1" fold="1" page="1" pageScale="1" pageWidth="850" pageHeight="1100" math="0" shadow="0">
      <root>
        <mxCell id="0" />
        <mxCell id="1" parent="0" />
        <mxCell id="YUAZAgUxX-3UhqZ_EZpn-2" value="Local Store" style="text;html=1;strokeColor=none;fillColor=none;align=center;verticalAlign=middle;whiteSpace=wrap;rounded=0;" vertex="1" parent="1">
          <mxGeometry x="230" y="410" width="60" height="30" as="geometry" />
        </mxCell>
        <mxCell id="YUAZAgUxX-3UhqZ_EZpn-4" value="Database" style="text;html=1;strokeColor=none;fillColor=none;align=center;verticalAlign=middle;whiteSpace=wrap;rounded=0;" vertex="1" parent="1">
          <mxGeometry x="539.9999999999999" y="60" width="60" height="30" as="geometry" />
        </mxCell>
        <mxCell id="YUAZAgUxX-3UhqZ_EZpn-5" value="" style="shape=actor;whiteSpace=wrap;html=1;" vertex="1" parent="1">
          <mxGeometry x="240" y="100" width="40" height="60" as="geometry" />
        </mxCell>
        <mxCell id="YUAZAgUxX-3UhqZ_EZpn-6" value="" style="shape=datastore;whiteSpace=wrap;html=1;" vertex="1" parent="1">
          <mxGeometry x="539.9999999999999" y="100" width="60" height="60" as="geometry" />
        </mxCell>
        <mxCell id="YUAZAgUxX-3UhqZ_EZpn-7" value="" style="shape=datastore;whiteSpace=wrap;html=1;direction=east;" vertex="1" parent="1">
          <mxGeometry x="230" y="340" width="60" height="60" as="geometry" />
        </mxCell>
        <mxCell id="YUAZAgUxX-3UhqZ_EZpn-8" value="" style="image;html=1;image=img/lib/clip_art/computers/Server_Rack_Partial_128x128.png" vertex="1" parent="1">
          <mxGeometry x="530" y="220" width="80" height="80" as="geometry" />
        </mxCell>
        <mxCell id="YUAZAgUxX-3UhqZ_EZpn-9" value="" style="aspect=fixed;perimeter=ellipsePerimeter;html=1;align=center;shadow=0;dashed=0;spacingTop=3;image;image=img/lib/active_directory/laptop_client.svg;" vertex="1" parent="1">
          <mxGeometry x="237.5" y="220" width="45" height="50" as="geometry" />
        </mxCell>
        <mxCell id="YUAZAgUxX-3UhqZ_EZpn-19" value="User" style="text;html=1;strokeColor=none;fillColor=none;align=center;verticalAlign=middle;whiteSpace=wrap;rounded=0;" vertex="1" parent="1">
          <mxGeometry x="233" y="60" width="60" height="30" as="geometry" />
        </mxCell>
        <mxCell id="YUAZAgUxX-3UhqZ_EZpn-20" value="Client" style="text;html=1;strokeColor=none;fillColor=none;align=center;verticalAlign=middle;whiteSpace=wrap;rounded=0;" vertex="1" parent="1">
          <mxGeometry x="177.5" y="230" width="60" height="30" as="geometry" />
        </mxCell>
        <mxCell id="YUAZAgUxX-3UhqZ_EZpn-21" value="Server" style="text;html=1;strokeColor=none;fillColor=none;align=center;verticalAlign=middle;whiteSpace=wrap;rounded=0;" vertex="1" parent="1">
          <mxGeometry x="540" y="310" width="60" height="30" as="geometry" />
        </mxCell>
        <mxCell id="YUAZAgUxX-3UhqZ_EZpn-74" value="" style="endArrow=classic;html=1;rounded=1;exitX=0.5;exitY=1;exitDx=0;exitDy=0;entryX=0.5;entryY=0;entryDx=0;entryDy=0;" edge="1" parent="1" source="YUAZAgUxX-3UhqZ_EZpn-5" target="YUAZAgUxX-3UhqZ_EZpn-9">
          <mxGeometry relative="1" as="geometry">
            <mxPoint x="480" y="370" as="sourcePoint" />
            <mxPoint x="580" y="370" as="targetPoint" />
          </mxGeometry>
        </mxCell>
        <mxCell id="YUAZAgUxX-3UhqZ_EZpn-75" value="1.Blocks domain" style="edgeLabel;resizable=0;html=1;align=center;verticalAlign=middle;" connectable="0" vertex="1" parent="YUAZAgUxX-3UhqZ_EZpn-74">
          <mxGeometry relative="1" as="geometry" />
        </mxCell>
        <mxCell id="YUAZAgUxX-3UhqZ_EZpn-76" value="" style="endArrow=classic;html=1;rounded=1;exitX=1.1;exitY=0.38;exitDx=0;exitDy=0;exitPerimeter=0;entryX=0;entryY=0.25;entryDx=0;entryDy=0;" edge="1" parent="1" source="YUAZAgUxX-3UhqZ_EZpn-9" target="YUAZAgUxX-3UhqZ_EZpn-8">
          <mxGeometry relative="1" as="geometry">
            <mxPoint x="480" y="370" as="sourcePoint" />
            <mxPoint x="520" y="240" as="targetPoint" />
          </mxGeometry>
        </mxCell>
        <mxCell id="YUAZAgUxX-3UhqZ_EZpn-77" value="2. Requests default blocklist" style="edgeLabel;resizable=0;html=1;align=center;verticalAlign=middle;" connectable="0" vertex="1" parent="YUAZAgUxX-3UhqZ_EZpn-76">
          <mxGeometry relative="1" as="geometry">
            <mxPoint as="offset" />
          </mxGeometry>
        </mxCell>
        <mxCell id="YUAZAgUxX-3UhqZ_EZpn-78" value="" style="endArrow=classic;html=1;rounded=1;exitX=0.5;exitY=0;exitDx=0;exitDy=0;" edge="1" parent="1" source="YUAZAgUxX-3UhqZ_EZpn-8">
          <mxGeometry relative="1" as="geometry">
            <mxPoint x="297" y="249" as="sourcePoint" />
            <mxPoint x="570" y="160" as="targetPoint" />
          </mxGeometry>
        </mxCell>
        <mxCell id="YUAZAgUxX-3UhqZ_EZpn-79" value="2. Requests default blocklist" style="edgeLabel;resizable=0;html=1;align=center;verticalAlign=middle;" connectable="0" vertex="1" parent="YUAZAgUxX-3UhqZ_EZpn-78">
          <mxGeometry relative="1" as="geometry" />
        </mxCell>
        <mxCell id="YUAZAgUxX-3UhqZ_EZpn-80" value="" style="endArrow=classic;html=1;rounded=1;exitX=1;exitY=0.5;exitDx=0;exitDy=0;entryX=1;entryY=0.5;entryDx=0;entryDy=0;" edge="1" parent="1" source="YUAZAgUxX-3UhqZ_EZpn-6" target="YUAZAgUxX-3UhqZ_EZpn-8">
          <mxGeometry relative="1" as="geometry">
            <mxPoint x="450" y="370" as="sourcePoint" />
            <mxPoint x="610" y="370" as="targetPoint" />
            <Array as="points">
              <mxPoint x="710" y="130" />
              <mxPoint x="710" y="260" />
            </Array>
          </mxGeometry>
        </mxCell>
        <mxCell id="YUAZAgUxX-3UhqZ_EZpn-81" value="3. Respond w/ blocklist" style="edgeLabel;resizable=0;html=1;align=center;verticalAlign=middle;" connectable="0" vertex="1" parent="YUAZAgUxX-3UhqZ_EZpn-80">
          <mxGeometry relative="1" as="geometry">
            <mxPoint x="20" as="offset" />
          </mxGeometry>
        </mxCell>
        <mxCell id="YUAZAgUxX-3UhqZ_EZpn-83" value="" style="endArrow=classic;html=1;rounded=1;exitX=0;exitY=0.5;exitDx=0;exitDy=0;entryX=1;entryY=0.75;entryDx=0;entryDy=0;" edge="1" parent="1" source="YUAZAgUxX-3UhqZ_EZpn-8" target="YUAZAgUxX-3UhqZ_EZpn-9">
          <mxGeometry relative="1" as="geometry">
            <mxPoint x="297" y="249" as="sourcePoint" />
            <mxPoint x="540" y="250" as="targetPoint" />
          </mxGeometry>
        </mxCell>
        <mxCell id="YUAZAgUxX-3UhqZ_EZpn-84" value="4. Respond w/ default blocklist" style="edgeLabel;resizable=0;html=1;align=center;verticalAlign=middle;" connectable="0" vertex="1" parent="YUAZAgUxX-3UhqZ_EZpn-83">
          <mxGeometry relative="1" as="geometry">
            <mxPoint y="-1" as="offset" />
          </mxGeometry>
        </mxCell>
        <mxCell id="YUAZAgUxX-3UhqZ_EZpn-85" value="" style="endArrow=classic;html=1;rounded=1;exitX=0.5;exitY=1;exitDx=0;exitDy=0;entryX=0.5;entryY=0;entryDx=0;entryDy=0;" edge="1" parent="1" source="YUAZAgUxX-3UhqZ_EZpn-9" target="YUAZAgUxX-3UhqZ_EZpn-7">
          <mxGeometry relative="1" as="geometry">
            <mxPoint x="450" y="370" as="sourcePoint" />
            <mxPoint x="610" y="370" as="targetPoint" />
          </mxGeometry>
        </mxCell>
        <mxCell id="YUAZAgUxX-3UhqZ_EZpn-86" value="5. Update local blocklist" style="edgeLabel;resizable=0;html=1;align=center;verticalAlign=middle;" connectable="0" vertex="1" parent="YUAZAgUxX-3UhqZ_EZpn-85">
          <mxGeometry relative="1" as="geometry" />
        </mxCell>
      </root>
    </mxGraphModel>
  </diagram>
</mxfile>
